<mxfile host="app.diagrams.net" modified="2024-03-08T14:25:27.222Z" agent="Mozilla/5.0 (X11; Linux x86_64; rv:109.0) Gecko/20100101 Firefox/115.0" etag="bBoxucQ9aDAsR129cnCm" version="24.0.1" type="github">
  <diagram name="Page-1" id="cMfeeuoLziK42vMgpFFL">
    <mxGraphModel dx="644" dy="706" grid="1" gridSize="10" guides="1" tooltips="1" connect="1" arrows="1" fold="1" page="1" pageScale="1" pageWidth="850" pageHeight="1100" math="0" shadow="0">
      <root>
        <mxCell id="0" />
        <mxCell id="1" parent="0" />
        <mxCell id="QD1RgbuTIPwoP_mnovIm-10" value="" style="group" parent="1" vertex="1" connectable="0">
          <mxGeometry x="120" y="290" width="90" height="90" as="geometry" />
        </mxCell>
        <mxCell id="QD1RgbuTIPwoP_mnovIm-6" value="" style="rounded=0;whiteSpace=wrap;html=1;" parent="QD1RgbuTIPwoP_mnovIm-10" vertex="1">
          <mxGeometry width="90" height="90" as="geometry" />
        </mxCell>
        <mxCell id="QD1RgbuTIPwoP_mnovIm-7" value="&quot;0&quot;" style="text;html=1;align=center;verticalAlign=middle;whiteSpace=wrap;rounded=0;" parent="QD1RgbuTIPwoP_mnovIm-10" vertex="1">
          <mxGeometry x="30" y="10" width="30" height="20" as="geometry" />
        </mxCell>
        <mxCell id="QD1RgbuTIPwoP_mnovIm-8" value="&amp;amp;" style="text;html=1;align=center;verticalAlign=middle;whiteSpace=wrap;rounded=0;" parent="QD1RgbuTIPwoP_mnovIm-10" vertex="1">
          <mxGeometry x="30" y="35" width="30" height="20" as="geometry" />
        </mxCell>
        <mxCell id="QD1RgbuTIPwoP_mnovIm-9" value="r_acc" style="text;html=1;align=center;verticalAlign=middle;whiteSpace=wrap;rounded=0;" parent="QD1RgbuTIPwoP_mnovIm-10" vertex="1">
          <mxGeometry x="30" y="60" width="30" height="20" as="geometry" />
        </mxCell>
        <mxCell id="QD1RgbuTIPwoP_mnovIm-11" value="" style="group" parent="1" vertex="1" connectable="0">
          <mxGeometry x="120" y="170" width="90" height="90" as="geometry" />
        </mxCell>
        <mxCell id="QD1RgbuTIPwoP_mnovIm-1" value="" style="rounded=0;whiteSpace=wrap;html=1;" parent="QD1RgbuTIPwoP_mnovIm-11" vertex="1">
          <mxGeometry width="90" height="90" as="geometry" />
        </mxCell>
        <mxCell id="QD1RgbuTIPwoP_mnovIm-2" value="&quot;0&quot;" style="text;html=1;align=center;verticalAlign=middle;whiteSpace=wrap;rounded=0;" parent="QD1RgbuTIPwoP_mnovIm-11" vertex="1">
          <mxGeometry x="30" y="10" width="30" height="20" as="geometry" />
        </mxCell>
        <mxCell id="QD1RgbuTIPwoP_mnovIm-4" value="&amp;amp;" style="text;html=1;align=center;verticalAlign=middle;whiteSpace=wrap;rounded=0;" parent="QD1RgbuTIPwoP_mnovIm-11" vertex="1">
          <mxGeometry x="30" y="35" width="30" height="20" as="geometry" />
        </mxCell>
        <mxCell id="QD1RgbuTIPwoP_mnovIm-5" value="set_point" style="text;html=1;align=center;verticalAlign=middle;whiteSpace=wrap;rounded=0;" parent="QD1RgbuTIPwoP_mnovIm-11" vertex="1">
          <mxGeometry x="30" y="60" width="30" height="20" as="geometry" />
        </mxCell>
        <mxCell id="QD1RgbuTIPwoP_mnovIm-23" value="" style="group" parent="1" vertex="1" connectable="0">
          <mxGeometry x="300" y="210" width="125" height="120" as="geometry" />
        </mxCell>
        <mxCell id="QD1RgbuTIPwoP_mnovIm-16" value="" style="endArrow=none;html=1;rounded=0;" parent="QD1RgbuTIPwoP_mnovIm-23" edge="1">
          <mxGeometry width="50" height="50" relative="1" as="geometry">
            <mxPoint y="120" as="sourcePoint" />
            <mxPoint x="60" y="90" as="targetPoint" />
          </mxGeometry>
        </mxCell>
        <mxCell id="QD1RgbuTIPwoP_mnovIm-17" value="" style="endArrow=none;html=1;rounded=0;" parent="QD1RgbuTIPwoP_mnovIm-23" edge="1">
          <mxGeometry width="50" height="50" relative="1" as="geometry">
            <mxPoint x="60" y="90" as="sourcePoint" />
            <mxPoint x="60" y="30" as="targetPoint" />
          </mxGeometry>
        </mxCell>
        <mxCell id="QD1RgbuTIPwoP_mnovIm-18" value="" style="endArrow=none;html=1;rounded=0;" parent="QD1RgbuTIPwoP_mnovIm-23" edge="1">
          <mxGeometry width="50" height="50" relative="1" as="geometry">
            <mxPoint as="sourcePoint" />
            <mxPoint x="60" y="30" as="targetPoint" />
          </mxGeometry>
        </mxCell>
        <mxCell id="QD1RgbuTIPwoP_mnovIm-19" value="" style="endArrow=none;html=1;rounded=0;" parent="QD1RgbuTIPwoP_mnovIm-23" edge="1">
          <mxGeometry width="50" height="50" relative="1" as="geometry">
            <mxPoint y="50" as="sourcePoint" />
            <mxPoint as="targetPoint" />
          </mxGeometry>
        </mxCell>
        <mxCell id="QD1RgbuTIPwoP_mnovIm-20" value="" style="endArrow=none;html=1;rounded=0;" parent="QD1RgbuTIPwoP_mnovIm-23" edge="1">
          <mxGeometry width="50" height="50" relative="1" as="geometry">
            <mxPoint y="120" as="sourcePoint" />
            <mxPoint y="80" as="targetPoint" />
          </mxGeometry>
        </mxCell>
        <mxCell id="QD1RgbuTIPwoP_mnovIm-21" value="" style="endArrow=none;html=1;rounded=0;" parent="QD1RgbuTIPwoP_mnovIm-23" edge="1">
          <mxGeometry width="50" height="50" relative="1" as="geometry">
            <mxPoint y="80" as="sourcePoint" />
            <mxPoint x="20" y="60" as="targetPoint" />
          </mxGeometry>
        </mxCell>
        <mxCell id="QD1RgbuTIPwoP_mnovIm-22" value="" style="endArrow=none;html=1;rounded=0;" parent="QD1RgbuTIPwoP_mnovIm-23" edge="1">
          <mxGeometry width="50" height="50" relative="1" as="geometry">
            <mxPoint y="50" as="sourcePoint" />
            <mxPoint x="20" y="60" as="targetPoint" />
          </mxGeometry>
        </mxCell>
        <mxCell id="QD1RgbuTIPwoP_mnovIm-26" value="+" style="text;html=1;align=center;verticalAlign=middle;whiteSpace=wrap;rounded=0;" parent="QD1RgbuTIPwoP_mnovIm-23" vertex="1">
          <mxGeometry x="20" y="50" width="60" height="30" as="geometry" />
        </mxCell>
        <mxCell id="QD1RgbuTIPwoP_mnovIm-28" value="next_acc" style="text;html=1;align=center;verticalAlign=middle;whiteSpace=wrap;rounded=0;" parent="QD1RgbuTIPwoP_mnovIm-23" vertex="1">
          <mxGeometry x="65" y="30" width="60" height="30" as="geometry" />
        </mxCell>
        <mxCell id="QD1RgbuTIPwoP_mnovIm-24" value="" style="endArrow=none;html=1;rounded=0;" parent="1" edge="1">
          <mxGeometry width="50" height="50" relative="1" as="geometry">
            <mxPoint x="210" y="320" as="sourcePoint" />
            <mxPoint x="300" y="320" as="targetPoint" />
          </mxGeometry>
        </mxCell>
        <mxCell id="QD1RgbuTIPwoP_mnovIm-25" value="" style="endArrow=none;html=1;rounded=0;" parent="1" edge="1">
          <mxGeometry width="50" height="50" relative="1" as="geometry">
            <mxPoint x="210" y="230" as="sourcePoint" />
            <mxPoint x="300" y="230" as="targetPoint" />
          </mxGeometry>
        </mxCell>
        <mxCell id="QD1RgbuTIPwoP_mnovIm-27" value="" style="endArrow=none;html=1;rounded=0;" parent="1" edge="1">
          <mxGeometry width="50" height="50" relative="1" as="geometry">
            <mxPoint x="360" y="269.5" as="sourcePoint" />
            <mxPoint x="690" y="270" as="targetPoint" />
          </mxGeometry>
        </mxCell>
        <mxCell id="QD1RgbuTIPwoP_mnovIm-29" value="" style="endArrow=none;html=1;rounded=0;" parent="1" edge="1">
          <mxGeometry width="50" height="50" relative="1" as="geometry">
            <mxPoint x="415" y="290" as="sourcePoint" />
            <mxPoint x="435" y="250" as="targetPoint" />
          </mxGeometry>
        </mxCell>
        <mxCell id="QD1RgbuTIPwoP_mnovIm-30" value="width" style="text;html=1;align=center;verticalAlign=middle;whiteSpace=wrap;rounded=0;" parent="1" vertex="1">
          <mxGeometry x="410" y="270" width="60" height="30" as="geometry" />
        </mxCell>
        <mxCell id="QD1RgbuTIPwoP_mnovIm-31" value="" style="endArrow=none;html=1;rounded=0;" parent="1" edge="1">
          <mxGeometry width="50" height="50" relative="1" as="geometry">
            <mxPoint x="510" y="292.5" as="sourcePoint" />
            <mxPoint x="530" y="252.5" as="targetPoint" />
          </mxGeometry>
        </mxCell>
        <mxCell id="QD1RgbuTIPwoP_mnovIm-32" value="width" style="text;html=1;align=center;verticalAlign=middle;whiteSpace=wrap;rounded=0;" parent="1" vertex="1">
          <mxGeometry x="510" y="270" width="60" height="30" as="geometry" />
        </mxCell>
        <mxCell id="QD1RgbuTIPwoP_mnovIm-35" value="" style="group" parent="1" vertex="1" connectable="0">
          <mxGeometry x="470" y="227.5" width="30" height="85" as="geometry" />
        </mxCell>
        <mxCell id="QD1RgbuTIPwoP_mnovIm-33" value="" style="rounded=0;whiteSpace=wrap;html=1;" parent="QD1RgbuTIPwoP_mnovIm-35" vertex="1">
          <mxGeometry width="30" height="85" as="geometry" />
        </mxCell>
        <mxCell id="QD1RgbuTIPwoP_mnovIm-34" value="" style="triangle;whiteSpace=wrap;html=1;rotation=90;" parent="QD1RgbuTIPwoP_mnovIm-35" vertex="1">
          <mxGeometry x="2.5" width="25" height="30" as="geometry" />
        </mxCell>
        <mxCell id="X2MPTwxT1ib-wAGZeDni-1" style="edgeStyle=orthogonalEdgeStyle;rounded=0;orthogonalLoop=1;jettySize=auto;html=1;entryX=0.5;entryY=1;entryDx=0;entryDy=0;" edge="1" parent="1" source="QD1RgbuTIPwoP_mnovIm-43" target="QD1RgbuTIPwoP_mnovIm-6">
          <mxGeometry relative="1" as="geometry">
            <Array as="points">
              <mxPoint x="595" y="400" />
              <mxPoint x="165" y="400" />
            </Array>
          </mxGeometry>
        </mxCell>
        <mxCell id="QD1RgbuTIPwoP_mnovIm-43" value="r_acc" style="text;html=1;align=center;verticalAlign=middle;whiteSpace=wrap;rounded=0;" parent="1" vertex="1">
          <mxGeometry x="580" y="250" width="30" height="20" as="geometry" />
        </mxCell>
        <mxCell id="QD1RgbuTIPwoP_mnovIm-44" value="CLK" style="text;html=1;align=center;verticalAlign=middle;whiteSpace=wrap;rounded=0;" parent="1" vertex="1">
          <mxGeometry x="455" y="200" width="60" height="30" as="geometry" />
        </mxCell>
      </root>
    </mxGraphModel>
  </diagram>
</mxfile>
